<svg width="26" height="25" viewBox="0 0 26 25" fill="none" xmlns="http://www.w3.org/2000/svg">
<path fill-rule="evenodd" clip-rule="evenodd" d="M16.5383 24.4551H22.4905C23.7428 24.4551 24.761 23.4019 24.761 22.104V16.5249C24.761 15.2271 23.7428 14.1761 22.4905 14.1761H16.5383C15.2837 14.1761 14.2678 15.2271 14.2678 16.5249V22.104C14.2678 23.4019 15.2837 24.4551 16.5383 24.4551Z" stroke="#D8D8D8" stroke-linecap="round" stroke-linejoin="round"/>
<path fill-rule="evenodd" clip-rule="evenodd" d="M2.83881 24.4241H8.79109C10.0434 24.4241 11.0615 23.3732 11.0615 22.0754V16.4939C11.0615 15.1984 10.0434 14.1451 8.79109 14.1451H2.83881C1.58427 14.1451 0.568359 15.1984 0.568359 16.4939V22.0754C0.568359 23.3732 1.58427 24.4241 2.83881 24.4241Z" stroke="#D8D8D8" stroke-linecap="round" stroke-linejoin="round"/>
<path fill-rule="evenodd" clip-rule="evenodd" d="M16.5383 10.8663H22.4905C23.7428 10.8663 24.761 9.81534 24.761 8.51753V2.93603C24.761 1.64057 23.7428 0.58728 22.4905 0.58728H16.5383C15.2837 0.58728 14.2678 1.64057 14.2678 2.93603V8.51753C14.2678 9.81534 15.2837 10.8663 16.5383 10.8663Z" stroke="#D8D8D8" stroke-linecap="round" stroke-linejoin="round"/>
<path fill-rule="evenodd" clip-rule="evenodd" d="M2.83881 10.8663H8.79109C10.0434 10.8663 11.0615 9.81534 11.0615 8.51753V2.93603C11.0615 1.64057 10.0434 0.58728 8.79109 0.58728H2.83881C1.58427 0.58728 0.568359 1.64057 0.568359 2.93603V8.51753C0.568359 9.81534 1.58427 10.8663 2.83881 10.8663Z" stroke="#D8D8D8" stroke-linecap="round" stroke-linejoin="round"/>
</svg>
