<svg width="39" height="39" viewBox="0 0 39 39" fill="none" xmlns="http://www.w3.org/2000/svg">
<rect width="39" height="39" rx="5" fill="#2D6755"/>
<path fill-rule="evenodd" clip-rule="evenodd" d="M11.4881 30.7307H28.5117C30.2359 30.7307 31.6323 29.3343 31.6323 27.61V13.3531C31.6323 11.631 30.2359 10.2324 28.5117 10.2324H11.4881C9.76385 10.2324 8.36743 11.631 8.36743 13.3531V27.61C8.36743 29.3343 9.76385 30.7307 11.4881 30.7307Z" stroke="#D8D8D8" stroke-linecap="round" stroke-linejoin="round"/>
<path d="M12.1326 17.6477H27.8669C27.8669 17.6477 27.0058 24.0966 23.4962 27.6827H7.76196" stroke="#D8D8D8" stroke-linecap="round" stroke-linejoin="round"/>
<path d="M11.917 17.6477C11.917 17.6477 11.0538 24.0966 7.54639 27.6827" stroke="#D8D8D8" stroke-linecap="round" stroke-linejoin="round"/>
<path d="M15.2473 14.3986H24.7534" stroke="#D8D8D8" stroke-linecap="round" stroke-linejoin="round"/>
<path d="M26.6976 8.54673V10.2316" stroke="#D8D8D8" stroke-linecap="round" stroke-linejoin="round"/>
<path d="M13.3021 8.54673V10.2316" stroke="#D8D8D8" stroke-linecap="round" stroke-linejoin="round"/>
<path d="M27.8671 17.6477V30.5717" stroke="#D8D8D8" stroke-linecap="round" stroke-linejoin="round"/>
<path d="M11.9171 27.6833V30.5723" stroke="#D8D8D8" stroke-linecap="round" stroke-linejoin="round"/>
</svg>
