<svg width="26" height="24" viewBox="0 0 26 24" fill="none" xmlns="http://www.w3.org/2000/svg">
<path fill-rule="evenodd" clip-rule="evenodd" d="M4.48806 22.7307H21.5117C23.2359 22.7307 24.6323 21.3343 24.6323 19.61V5.35305C24.6323 3.63102 23.2359 2.23242 21.5117 2.23242H4.48806C2.76385 2.23242 1.36743 3.63102 1.36743 5.35305V19.61C1.36743 21.3343 2.76385 22.7307 4.48806 22.7307Z" stroke="#D8D8D8" stroke-linecap="round" stroke-linejoin="round"/>
<path d="M5.13259 9.64771H20.8669C20.8669 9.64771 20.0058 16.0966 16.4962 19.6827H0.761963" stroke="#D8D8D8" stroke-linecap="round" stroke-linejoin="round"/>
<path d="M4.91702 9.64771C4.91702 9.64771 4.05382 16.0966 0.546387 19.6827" stroke="#D8D8D8" stroke-linecap="round" stroke-linejoin="round"/>
<path d="M8.24731 6.39857H17.7534" stroke="#D8D8D8" stroke-linecap="round" stroke-linejoin="round"/>
<path d="M19.6976 0.546727V2.2316" stroke="#D8D8D8" stroke-linecap="round" stroke-linejoin="round"/>
<path d="M6.30213 0.546727V2.2316" stroke="#D8D8D8" stroke-linecap="round" stroke-linejoin="round"/>
<path d="M20.8671 9.64771V22.5717" stroke="#D8D8D8" stroke-linecap="round" stroke-linejoin="round"/>
<path d="M4.91712 19.6833V22.5723" stroke="#D8D8D8" stroke-linecap="round" stroke-linejoin="round"/>
</svg>
