<svg width="30" height="43" viewBox="0 0 30 43" fill="none" xmlns="http://www.w3.org/2000/svg">
<path fill-rule="evenodd" clip-rule="evenodd" d="M9.9724 15.7112C9.9724 13.0954 7.85168 10.9747 5.23592 10.9747C2.62072 10.9747 0.5 13.0954 0.5 15.7112C0.5 18.3269 2.62072 20.4476 5.23592 20.4476C7.85168 20.4476 9.9724 18.3269 9.9724 15.7112Z" fill="#084C37"/>
<path fill-rule="evenodd" clip-rule="evenodd" d="M10.2986 19.6577C8.417 22.5238 5.45516 27.547 4.53116 32.0113C4.31164 33.0714 4.99316 34.1085 6.05324 34.3274C6.18708 34.3554 6.32092 34.3689 6.45252 34.3689C7.36252 34.3689 8.17788 33.7316 8.36996 32.8059C9.02572 29.6358 10.9952 25.9633 12.6276 23.3083L11.4343 21.812C10.9079 21.1518 10.5349 20.4193 10.2986 19.6577Z" fill="#084C37"/>
<mask id="mask0" mask-type="alpha" maskUnits="userSpaceOnUse" x="11" y="0" width="19" height="43">
<path fill-rule="evenodd" clip-rule="evenodd" d="M11.1219 0H29.1214V42.7391H11.1219V0Z" fill="white"/>
</mask>
<g mask="url(#mask0)">
<path fill-rule="evenodd" clip-rule="evenodd" d="M28.999 40.0982C28.0375 37.5004 27.8449 31.869 27.8723 27.7788C27.8745 27.3874 27.879 27.0094 27.8852 26.6498C27.9025 25.6525 27.9311 24.7929 27.9613 24.1618C27.9686 24.0117 27.9552 23.8661 27.93 23.7244C27.874 22.5854 27.4708 21.4945 26.7456 20.585L21.3914 13.8712C20.6242 12.9097 19.5955 12.2825 18.4884 11.9941V11.4122V10.8377V1.96C18.4884 0.87752 17.6109 0 16.5284 0C15.4459 0 14.5684 0.87752 14.5684 1.96V11.1989V11.811V12.432C14.2626 12.5922 13.9658 12.7798 13.6858 13.0032L13.1779 13.4086C11.6329 14.6406 10.9379 16.5441 11.1636 18.3753C11.2834 19.3452 11.6569 20.295 12.3099 21.1137L13.2591 22.3037L17.6641 27.8275C18.0404 28.2985 18.4805 28.6877 18.9599 28.9996C18.9084 29.181 18.8552 29.367 18.8009 29.559C18.7488 29.7405 18.6967 29.9247 18.6429 30.1146C17.7699 33.199 16.6404 37.319 15.9482 40.3413C15.7069 41.3963 16.366 42.4474 17.4216 42.6888C17.5689 42.723 17.7161 42.7392 17.8606 42.7392C18.7544 42.7392 19.5613 42.1238 19.7697 41.216C20.4506 38.2407 21.6003 34.0609 22.4711 30.9882C22.5271 30.7894 22.5825 30.5962 22.6363 30.4069C22.6934 30.2047 22.7494 30.0087 22.8037 29.8194C23.1912 29.759 23.5743 29.661 23.9461 29.5159C23.9473 29.7102 23.9495 29.9062 23.9523 30.1056C23.9551 30.2994 23.9585 30.4954 23.9624 30.6936C24.0385 34.4428 24.3561 38.8461 25.3232 41.459C25.6155 42.2498 26.3642 42.7392 27.1611 42.7392C27.3873 42.7392 27.6169 42.7 27.8415 42.6166C28.8562 42.2408 29.3748 41.1135 28.999 40.0982Z" fill="#084C37"/>
</g>
</svg>
