<svg width="26" height="41" viewBox="0 0 26 41" fill="none" xmlns="http://www.w3.org/2000/svg">
<path fill-rule="evenodd" clip-rule="evenodd" d="M18.0325 12.4879C18.5242 13.4113 18.8047 14.463 18.8047 15.5796V17.65C20.6186 18.822 22.3254 19.9342 22.6441 20.1761C23.007 20.4712 23.4443 20.6152 23.8789 20.6152C24.4406 20.6152 24.9978 20.3755 25.3853 19.9107C26.0786 19.0796 25.9671 17.8437 25.1361 17.1504C24.7642 16.8402 23.2097 15.8193 18.0325 12.4879Z" fill="#084C37"/>
<path fill-rule="evenodd" clip-rule="evenodd" d="M12.8722 30.7365C15.4891 32.4177 18.7337 35.2193 19.2439 38.9949C19.3766 39.9788 20.2177 40.6928 21.1837 40.6928C21.2711 40.6928 21.3596 40.6866 21.4486 40.6749C22.521 40.5298 23.2736 39.5425 23.1286 38.4701C22.5367 34.0893 19.679 30.9001 16.9143 28.7849C15.862 29.8585 14.4492 30.5769 12.8722 30.7365Z" fill="#084C37"/>
<path fill-rule="evenodd" clip-rule="evenodd" d="M12.6898 10.1218C12.5291 10.1078 12.3667 10.0972 12.202 10.0972C11.9909 10.0972 11.7837 10.1118 11.5793 10.1353C10.8636 10.1291 10.0158 10.2092 9.10804 10.3962C8.64995 10.4909 8.179 10.6096 7.69684 10.7664C4.86548 11.691 1.77148 13.7747 0.136275 17.9389C-0.259645 18.9463 0.236515 20.0842 1.24396 20.4796C1.47916 20.572 1.72164 20.6157 1.95964 20.6157C2.74196 20.6157 3.48172 20.1442 3.78468 19.3719C4.25956 18.1623 4.8946 17.2282 5.59964 16.5053C5.7822 16.3188 5.96923 16.1474 6.15964 15.9878C6.34387 15.8333 6.53148 15.691 6.72076 15.5594C6.72076 15.5667 6.71964 15.5729 6.71964 15.5802V24.1678C6.71964 25.3746 7.11612 26.4878 7.77916 27.3945C7.72708 27.6224 7.66996 27.8509 7.60332 28.081C7.5434 28.2871 7.48348 28.4932 7.41348 28.6998C6.18596 32.3146 3.45596 36.0095 2.20772 37.4426C1.49484 38.2574 1.57828 39.4955 2.39308 40.2078C2.76436 40.5332 3.22468 40.6922 3.6822 40.6922C4.2282 40.6922 4.77084 40.466 5.15836 40.0225C5.36724 39.7839 9.01508 35.5643 10.8771 30.6369C10.9443 30.4588 11.0092 30.2807 11.0714 30.101C11.1123 29.9834 11.1532 29.8658 11.1918 29.747C11.212 29.686 11.2316 29.6238 11.2506 29.5622C11.5603 29.6166 11.8772 29.6507 12.202 29.6507C13.6737 29.6507 15.0088 29.065 15.9949 28.118C17.0343 27.1195 17.685 25.7195 17.685 24.1678V16.9264V15.5802C17.685 12.7214 15.4853 10.3699 12.6898 10.1218Z" fill="#084C37"/>
<path fill-rule="evenodd" clip-rule="evenodd" d="M14.7266 0C12.1109 0 9.99014 2.12072 9.99014 4.73648C9.99014 6.61696 11.0894 8.23648 12.6781 9.00144C13.2908 9.29656 13.9745 9.4668 14.6992 9.47072C14.7081 9.47128 14.7171 9.4724 14.7266 9.4724C17.3424 9.4724 19.4631 7.35168 19.4631 4.73648C19.4631 2.12072 17.3424 0 14.7266 0Z" fill="#084C37"/>
</svg>
