<svg width="29" height="41" viewBox="0 0 29 41" fill="none" xmlns="http://www.w3.org/2000/svg">
<mask id="mask0" mask-type="alpha" maskUnits="userSpaceOnUse" x="15" y="28" width="7" height="13">
<path fill-rule="evenodd" clip-rule="evenodd" d="M15.7784 28.6792H21.8215V40.7413H15.7784V28.6792Z" fill="white"/>
</mask>
<g mask="url(#mask0)">
<path fill-rule="evenodd" clip-rule="evenodd" d="M15.7784 30.8744C16.5456 33.6301 17.4002 36.816 17.9507 39.2184C18.1584 40.1261 18.966 40.7416 19.8597 40.7416C20.0042 40.7416 20.1515 40.7248 20.2988 40.6912C21.3538 40.4498 22.0135 39.3987 21.7716 38.3431C21.1208 35.5011 20.0832 31.6886 19.2359 28.6792C18.3589 29.7432 17.1532 30.5216 15.7784 30.8744Z" fill="#084C37"/>
</g>
<path fill-rule="evenodd" clip-rule="evenodd" d="M10.0625 10.7147C6.79213 11.1347 2.24885 13.0409 0.135975 18.4191C-0.259385 19.4271 0.236775 20.5645 1.24365 20.9604C1.47941 21.0528 1.72133 21.0965 1.95989 21.0965C2.74221 21.0965 3.48141 20.625 3.78493 19.8527C4.67533 17.5853 6.12573 16.2822 7.55485 15.5346C7.66181 13.5819 8.61661 11.8543 10.0625 10.7147Z" fill="#084C37"/>
<path fill-rule="evenodd" clip-rule="evenodd" d="M14.1392 0C11.5235 0 9.40332 2.12072 9.40332 4.73648C9.40332 7.02184 11.0228 8.92864 13.176 9.37384C13.4874 9.43824 13.8094 9.4724 14.1392 9.4724C14.4696 9.4724 14.7916 9.43824 15.1024 9.37384C17.2562 8.92864 18.8757 7.02184 18.8757 4.73648C18.8757 2.12072 16.755 0 14.1392 0Z" fill="#084C37"/>
<path fill-rule="evenodd" clip-rule="evenodd" d="M27.1179 1.8465C26.0668 1.5889 25.0056 2.23234 24.748 3.28346C23.5518 8.1633 20.0557 9.7509 17.5424 10.2504C17.2171 10.3154 16.9096 10.3619 16.6246 10.3943C15.6104 10.5119 14.892 10.4604 14.7951 10.452C14.7816 10.4509 14.7693 10.4537 14.7559 10.4526C14.5532 10.4296 14.3482 10.4156 14.1393 10.4156C13.5463 10.4156 12.9762 10.5131 12.4408 10.6883C10.5139 11.3183 9.05844 12.9883 8.7314 15.0317C8.6866 15.3151 8.65636 15.6029 8.65636 15.8986V23.6585C8.64572 24.5293 8.62388 25.6308 8.58356 26.8634C8.5718 27.2235 8.55836 27.5936 8.54324 27.9733C8.40492 31.3781 8.11764 35.4639 7.51844 38.3871C7.30116 39.4477 7.98436 40.4837 9.045 40.701C9.17772 40.7284 9.31044 40.7413 9.44092 40.7413C10.352 40.7413 11.1685 40.1018 11.3589 39.1744C11.8528 36.7664 12.1485 33.7133 12.326 30.8293C12.3378 30.6395 12.349 30.4502 12.3596 30.2615C12.3708 30.066 12.3815 29.8717 12.3916 29.6779C12.9409 29.8639 13.5272 29.9686 14.1393 29.9686C14.6013 29.9686 15.0476 29.9047 15.4766 29.7972C16.9024 29.4377 18.1052 28.521 18.8422 27.2901C19.3339 26.4686 19.6223 25.5115 19.6223 24.4862V15.8986C19.6223 15.1902 19.4828 14.5154 19.237 13.8932C19.4168 13.8451 19.596 13.793 19.7768 13.7364C19.9532 13.6815 20.1296 13.6227 20.3066 13.56C23.7282 12.3454 27.2293 9.62714 28.5548 4.21642C28.8124 3.1653 28.169 2.1041 27.1179 1.8465Z" fill="#084C37"/>
</svg>
